<?xml version="1.0" encoding="UTF-8"?>
<svg id="Capa_1" xmlns="http://www.w3.org/2000/svg" xmlns:xlink="http://www.w3.org/1999/xlink" version="1.1" viewBox="0 0 912.39 282">
  <!-- Generator: Adobe Illustrator 30.2.1, SVG Export Plug-In . SVG Version: 2.1.1 Build 1)  -->
  <defs>
    <style>
      .st0 {
        fill: #1d1d1b;
      }

      .st1 {
        fill: url(#Degradado_sin_nombre_101);
      }

      .st2 {
        fill: url(#Degradado_sin_nombre_102);
      }

      .st3 {
        fill: url(#Degradado_sin_nombre_105);
      }

      .st4 {
        fill: url(#Degradado_sin_nombre_103);
      }

      .st5 {
        fill: url(#Degradado_sin_nombre_106);
      }

      .st6 {
        fill: url(#Degradado_sin_nombre_104);
      }

      .st7 {
        fill: url(#Degradado_sin_nombre_10);
      }
    </style>
    <linearGradient id="Degradado_sin_nombre_10" data-name="Degradado sin nombre 10" x1="6.54" y1="69.99" x2="225.41" y2="69.99" gradientUnits="userSpaceOnUse">
      <stop offset="0" stop-color="#3888c8"/>
      <stop offset="1" stop-color="#11aa7e"/>
    </linearGradient>
    <linearGradient id="Degradado_sin_nombre_101" data-name="Degradado sin nombre 10" y1="69.99" y2="69.99" xlink:href="#Degradado_sin_nombre_10"/>
    <linearGradient id="Degradado_sin_nombre_102" data-name="Degradado sin nombre 10" y1="215.24" y2="215.24" xlink:href="#Degradado_sin_nombre_10"/>
    <linearGradient id="Degradado_sin_nombre_103" data-name="Degradado sin nombre 10" y1="215.24" y2="215.24" xlink:href="#Degradado_sin_nombre_10"/>
    <linearGradient id="Degradado_sin_nombre_104" data-name="Degradado sin nombre 10" y1="142.62" y2="142.62" xlink:href="#Degradado_sin_nombre_10"/>
    <linearGradient id="Degradado_sin_nombre_105" data-name="Degradado sin nombre 10" y1="178.93" y2="178.93" xlink:href="#Degradado_sin_nombre_10"/>
    <linearGradient id="Degradado_sin_nombre_106" data-name="Degradado sin nombre 10" y1="142.62" y2="142.62" gradientTransform="translate(300.83 -15.59) rotate(90)" xlink:href="#Degradado_sin_nombre_10"/>
  </defs>
  <g>
    <rect class="st7" x="8.04" y="37.9" width="64.19" height="64.19" rx="31.75" ry="31.75"/>
    <rect class="st1" x="126.11" y="37.9" width="64.19" height="64.19" rx="31.75" ry="31.75"/>
    <rect class="st2" x="165.47" y="183.15" width="64.19" height="64.19" rx="31.75" ry="31.75"/>
    <rect class="st4" x="86.75" y="183.15" width="64.19" height="64.19" rx="31.75" ry="31.75"/>
    <rect class="st6" x="8.04" y="110.52" width="64.19" height="64.19" rx="31.75" ry="31.75"/>
    <rect class="st3" x="8.04" y="110.52" width="64.19" height="136.82" rx="31.75" ry="31.75"/>
    <rect class="st5" x="126.11" y="71.16" width="64.19" height="142.91" rx="31.75" ry="31.75" transform="translate(15.59 300.83) rotate(-90)"/>
  </g>
  <g>
    <path class="st0" d="M283.9,90.05c0-2.25.41-4.35,1.23-6.3.82-1.94,1.92-3.63,3.3-5.07,1.38-1.43,3.02-2.56,4.91-3.38,1.89-.82,3.92-1.23,6.07-1.23s4.17.41,6.07,1.23c1.89.82,3.58,1.95,5.07,3.38,1.48,1.44,2.63,3.12,3.46,5.07.82,1.95,1.23,4.04,1.23,6.3s-.41,4.22-1.23,6.22c-.82,2-1.97,3.71-3.46,5.14-1.49,1.44-3.17,2.59-5.07,3.46-1.9.87-3.92,1.31-6.07,1.31s-4.17-.43-6.07-1.31c-1.9-.87-3.53-2.02-4.91-3.46-1.38-1.43-2.48-3.15-3.3-5.14-.82-2-1.23-4.07-1.23-6.22ZM286.82,110.32h25.34v75.24h-25.34v-75.24Z"/>
    <path class="st0" d="M373.12,134.58c-.31-.31-.9-.82-1.77-1.53-.87-.71-1.92-1.43-3.15-2.15-1.23-.71-2.66-1.33-4.3-1.84-1.64-.51-3.38-.77-5.22-.77-2.36,0-3.97.41-4.84,1.23-.87.82-1.31,1.69-1.31,2.61,0,1.23.54,2.23,1.61,2.99,1.07.77,2.53,1.46,4.38,2.07,2.66.92,5.86,1.82,9.6,2.69,3.74.87,7.29,2.13,10.67,3.76,3.38,1.64,6.24,3.84,8.6,6.6,2.35,2.76,3.53,6.55,3.53,11.36,0,3.79-.79,7.27-2.38,10.44-1.59,3.17-3.87,5.89-6.83,8.14-2.97,2.25-6.58,4.02-10.83,5.3-4.25,1.28-9.04,1.92-14.36,1.92-7.06,0-13.49-.92-19.27-2.76-5.79-1.84-10.42-4.45-13.9-7.83l14.9-16.74c.41.41,1.15,1,2.23,1.77,1.07.77,2.4,1.53,3.99,2.3,1.59.77,3.38,1.46,5.37,2.07,2,.61,4.12.92,6.37.92,1.84,0,3.58-.25,5.22-.77,1.64-.51,2.46-1.59,2.46-3.22,0-1.13-.46-2.05-1.38-2.76-.92-.72-2.2-1.38-3.84-2-2.66-1.02-5.91-2-9.75-2.92-3.84-.92-7.55-2.17-11.13-3.76-3.58-1.59-6.63-3.76-9.14-6.53-2.51-2.76-3.76-6.45-3.76-11.06,0-3.79.79-7.27,2.38-10.44,1.59-3.17,3.84-5.89,6.76-8.14,2.92-2.25,6.45-3.99,10.6-5.22,4.14-1.23,8.83-1.84,14.05-1.84,3.99,0,7.63.36,10.9,1.07,3.28.72,6.14,1.56,8.6,2.53,2.46.97,4.5,2,6.14,3.07,1.64,1.07,2.86,1.97,3.69,2.69l-14.9,16.74Z"/>
    <path class="st0" d="M420.57,110.32l12.75,48.68h.31l12.9-48.68h28.56l-42.07,110.56h-27.64l14.9-35.63-28.26-74.94h28.56Z"/>
    <path class="st0" d="M475.7,121.07c.61-.71,1.87-1.77,3.76-3.15,1.89-1.38,4.3-2.76,7.22-4.14,2.92-1.38,6.32-2.58,10.21-3.61,3.89-1.02,8.14-1.54,12.75-1.54s9.24.54,13.59,1.61c4.35,1.07,8.22,2.84,11.59,5.3,3.38,2.46,6.07,5.68,8.06,9.67,2,3.99,2.99,8.91,2.99,14.74v45.61h-21.5l-1.84-8.75c-2.36,3.28-5.32,5.81-8.91,7.6-3.58,1.79-8.04,2.69-13.36,2.69-4.1,0-7.7-.59-10.83-1.77-3.12-1.18-5.73-2.79-7.83-4.84-2.1-2.05-3.68-4.45-4.76-7.22-1.07-2.76-1.61-5.73-1.61-8.91s.69-6.4,2.07-9.37c1.38-2.97,3.58-5.55,6.6-7.76,3.02-2.2,6.93-3.97,11.75-5.3,4.81-1.33,10.65-2,17.51-2h8.91v-.61c0-3.07-1.1-5.48-3.3-7.22-2.2-1.74-5.81-2.61-10.83-2.61-2.25,0-4.43.31-6.53.92-2.1.61-3.99,1.33-5.68,2.15-1.69.82-3.15,1.66-4.38,2.53-1.23.87-2.1,1.56-2.61,2.07l-13.05-16.12ZM522.08,153.32h-7.99c-5.12,0-8.65.95-10.6,2.84-1.95,1.9-2.92,4.02-2.92,6.37,0,1.74.66,3.38,2,4.91,1.33,1.54,3.48,2.3,6.45,2.3,1.23,0,2.61-.31,4.15-.92,1.53-.61,2.94-1.54,4.22-2.76,1.28-1.23,2.38-2.79,3.3-4.68.92-1.89,1.38-4.07,1.38-6.53v-1.53Z"/>
    <path class="st0" d="M617.28,178.5c-3.38,2.66-7.14,4.76-11.29,6.3-4.14,1.53-8.58,2.3-13.28,2.3-5.43,0-10.52-1.03-15.28-3.07-4.76-2.05-8.91-4.84-12.44-8.37-3.53-3.53-6.32-7.68-8.37-12.44-2.05-4.76-3.07-9.85-3.07-15.28s1.02-10.52,3.07-15.28c2.05-4.76,4.84-8.91,8.37-12.44,3.53-3.53,7.68-6.32,12.44-8.37,4.76-2.05,9.85-3.07,15.28-3.07,7.98,0,15.15,2.15,21.5,6.45v-40.23h25.18v110.56h-21.5l-.61-7.06ZM578.74,147.94c0,2.46.49,4.74,1.46,6.83.97,2.1,2.25,3.97,3.84,5.61,1.59,1.64,3.46,2.92,5.61,3.84s4.45,1.38,6.91,1.38,4.73-.46,6.83-1.38c2.1-.92,3.97-2.2,5.61-3.84,1.64-1.64,2.92-3.51,3.84-5.61.92-2.1,1.38-4.38,1.38-6.83s-.46-4.73-1.38-6.83c-.92-2.1-2.2-3.97-3.84-5.61-1.64-1.64-3.51-2.92-5.61-3.84-2.1-.92-4.38-1.38-6.83-1.38s-4.76.46-6.91,1.38-4.02,2.2-5.61,3.84c-1.59,1.64-2.87,3.51-3.84,5.61-.97,2.1-1.46,4.38-1.46,6.83Z"/>
    <path class="st0" d="M677.78,185.57h-25.34v-75.24h21.5l1.07,9.98c3.17-3.48,6.76-6.27,10.75-8.37,3.99-2.1,8.29-3.15,12.9-3.15,5.84,0,10.7,1.15,14.59,3.46,3.89,2.3,6.91,5.55,9.06,9.75,3.17-3.89,6.91-7.06,11.21-9.52,4.3-2.46,8.91-3.69,13.82-3.69s8.98.82,12.51,2.46c3.53,1.64,6.45,3.97,8.75,6.99,2.3,3.02,4.02,6.6,5.15,10.75,1.12,4.15,1.69,8.73,1.69,13.74l.15,42.84h-25.43v-41.31c0-3.58-.8-6.55-2.39-8.91-1.59-2.35-4.5-3.53-8.71-3.53-3.7,0-6.7,1.36-9,4.07-2.3,2.71-3.45,6.22-3.45,10.52v39.16h-25.34v-41.31c0-3.17-.79-6.04-2.38-8.6-1.59-2.56-4.48-3.84-8.68-3.84-3.58,0-6.55,1.36-8.91,4.07-2.36,2.71-3.53,6.22-3.53,10.52v39.16Z"/>
    <path class="st0" d="M785.43,90.05c0-2.25.41-4.35,1.23-6.3.82-1.94,1.92-3.63,3.3-5.07,1.38-1.43,3.02-2.56,4.91-3.38,1.89-.82,3.92-1.23,6.07-1.23s4.17.41,6.07,1.23c1.89.82,3.58,1.95,5.07,3.38,1.48,1.44,2.63,3.12,3.46,5.07.82,1.95,1.23,4.04,1.23,6.3s-.41,4.22-1.23,6.22c-.82,2-1.97,3.71-3.46,5.14-1.49,1.44-3.17,2.59-5.07,3.46-1.9.87-3.92,1.31-6.07,1.31s-4.17-.43-6.07-1.31c-1.9-.87-3.53-2.02-4.91-3.46-1.38-1.43-2.48-3.15-3.3-5.14-.82-2-1.23-4.07-1.23-6.22ZM788.35,110.32h25.34v75.24h-25.34v-75.24Z"/>
    <path class="st0" d="M853.3,185.57h-25.34v-75.24h21.5l1.07,9.98c3.07-3.48,6.6-6.27,10.6-8.37,3.99-2.1,8.29-3.15,12.9-3.15s9.01.82,12.59,2.46c3.58,1.64,6.55,3.97,8.91,6.99,2.35,3.02,4.09,6.6,5.22,10.75,1.13,4.15,1.69,8.73,1.69,13.74v42.84h-25.34v-41.31c0-3.58-.79-6.55-2.38-8.91-1.59-2.35-4.58-3.53-8.98-3.53-3.68,0-6.68,1.36-8.98,4.07-2.3,2.71-3.46,6.22-3.46,10.52v39.16Z"/>
  </g>
</svg>